<?xml version="1.0" encoding="UTF-8" standalone="no"?>
<!-- Created with Inkscape (http://www.inkscape.org/) -->

<svg
   xmlns:dc="http://purl.org/dc/elements/1.1/"
   xmlns:cc="http://creativecommons.org/ns#"
   xmlns:rdf="http://www.w3.org/1999/02/22-rdf-syntax-ns#"
   xmlns:svg="http://www.w3.org/2000/svg"
   xmlns="http://www.w3.org/2000/svg"
   xmlns:sodipodi="http://sodipodi.sourceforge.net/DTD/sodipodi-0.dtd"
   xmlns:inkscape="http://www.inkscape.org/namespaces/inkscape"
   width="531.49603"
   height="531.49603"
   id="svg2"
   version="1.1"
   inkscape:version="0.48.1 "
   sodipodi:docname="om_simbolo_symbol_aum.svg">
  <defs
     id="defs4">
    <filter
       inkscape:collect="always"
       id="filter4905"
       color-interpolation-filters="sRGB">
      <feGaussianBlur
         inkscape:collect="always"
         stdDeviation="0.95064289"
         id="feGaussianBlur4907" />
    </filter>
    <filter
       inkscape:collect="always"
       id="filter4981"
       color-interpolation-filters="sRGB">
      <feGaussianBlur
         inkscape:collect="always"
         stdDeviation="1.5065625"
         id="feGaussianBlur4983" />
    </filter>
    <filter
       inkscape:collect="always"
       id="filter4990"
       color-interpolation-filters="sRGB">
      <feGaussianBlur
         inkscape:collect="always"
         stdDeviation="1.5110156"
         id="feGaussianBlur4992" />
    </filter>
    <filter
       inkscape:collect="always"
       id="filter5016"
       color-interpolation-filters="sRGB">
      <feGaussianBlur
         inkscape:collect="always"
         stdDeviation="0.98826929"
         id="feGaussianBlur5018" />
    </filter>
  </defs>
  <sodipodi:namedview
     id="base"
     pagecolor="#ffffff"
     bordercolor="#666666"
     borderopacity="1.0"
     inkscape:pageopacity="0.0"
     inkscape:pageshadow="2"
     inkscape:zoom="0.77327886"
     inkscape:cx="515.99138"
     inkscape:cy="144.53547"
     inkscape:document-units="px"
     inkscape:current-layer="layer1"
     showgrid="false"
     inkscape:window-width="1680"
     inkscape:window-height="989"
     inkscape:window-x="-9"
     inkscape:window-y="-9"
     inkscape:window-maximized="1"
     units="cm" />
  <metadata
     id="metadata7">
    <rdf:RDF>
      <cc:Work
         rdf:about="">
        <dc:format>image/svg+xml</dc:format>
        <dc:type
           rdf:resource="http://purl.org/dc/dcmitype/StillImage" />
        <dc:title />
      </cc:Work>
    </rdf:RDF>
  </metadata>
  <g
     inkscape:label="Livello 1"
     inkscape:groupmode="layer"
     id="layer1"
     transform="translate(0,-520.86611)">
    <path
       inkscape:connector-curvature="0"
       id="path4112"
       d="m -333.74075,334.84556 c -18.78659,-3.27946 -38.67028,-17.96674 -47.78024,-34.832 -7.7098,-14.9236 -11.61627,-30.9026 -11.7478,-48.053 -0.0831,-10.8321 1.43512,-15.7755 2.62593,-8.55 4.10868,22.5021 16.65645,48.62239 35.81228,58.7486 15.35686,7.7491 38.24573,5.0069 49.13975,-5.8871 5.13257,-5.1326 7.49925,-10.7186 7.52601,-17.7634 -2.61835,-22.96894 -22.53587,-23.96104 -39.25739,-21.3751 -2.38369,-8.43396 -6.26899,-22.15081 -8.67466,-30.8712 11.56521,3.7635 34.41083,1.70056 40.47825,-8.5185 5.48211,-10.6012 -3.04513,-20.4729 -17.51559,-20.2771 -13.70196,-1.15745 -28.08785,8.42162 -36.75183,14.9578 -5.30474,-8.85912 -8.72613,-15.96205 -13.75682,-25.72733 7.61031,-6.11434 16.84273,-10.93245 25.49215,-13.91221 12.7643,-4.28349 31.86594,-4.36236 41.34189,-0.1707 17.02563,8.95671 20.94236,31.7434 14.38882,46.60654 -3.34807,7.1493 -8.40076,13.5057 -13.7351,17.2792 -2.16978,1.5349 -3.95467,3.1237 -3.96641,3.5307 -0.0366,1.2673 13.09929,6.76 16.16663,6.76 7.16193,0 13.33867,-6.3253 21.21697,-21.7273 9.4763,-18.526 20.17697,-27.8623 34.59505,-30.18408 20.72923,-3.33805 40.60625,13.35888 47.51291,39.91138 0.9299,3.575 2.03001,11.45 2.44469,17.5 1.62815,23.754 -3.45615,40.7223 -16.02757,53.4904 -15.18902,15.4267 -36.45084,17.3377 -50.66921,4.5542 -8.61147,-7.7425 -13.20465,-19.7875 -13.24346,-34.7295 -0.0194,-7.458 1.57276,-13.3454 2.92473,-10.8151 6.44855,19.83299 20.94184,26.5241 39.64911,19.88 8.01017,-2.997 18.31332,-13.237 21.236,-21.106 5.69547,-15.3342 4.41894,-33.2219 -3.15074,-44.1501 -15.8674,-16.61385 -30.94659,5.3667 -36.15131,14.0798 -6.71745,11.359 -12.47065,17.6333 -19.17761,20.9147 -9.27016,4.72769 -14.66069,0.7217 -24.34754,3.3305 1.86126,4.84705 4.15676,9.64726 5.51368,14.7534 6.15018,23.5651 -0.5758,45.1053 -17.40068,55.7264 -8.78281,5.5443 -23.58665,8.3703 -34.71089,6.6261 z m 69.09789,-144.14199 c -18.45577,-2.75246 -35.99851,-20.38623 -39.4657,-39.67048 -1.66364,-9.25308 -0.66061,-10.02058 3.63983,-3.42482 4.32453,6.63272 11.40167,13.15369 19.44937,17.35424 12.81399,5.77471 27.18552,3.98302 36.95189,-0.8477 4.8229,-2.39063 11.07454,-6.57487 14.62295,-9.78716 l 6.19835,-5.61121 c 7.22277,9.28319 13.91802,18.0357 16.10331,21.29671 -14.63677,14.6295 -37.51875,23.29579 -57.5,20.69042 z m -18.9109,-45.14305 18.12761,-17.76976 19.28329,17.65437 -18.67868,18.32832 z"
       style="fill:#0e0e0e"
       sodipodi:nodetypes="ccsccsccccccccccscssssssssccscccccsccssccscccccccc" />
    <path
       sodipodi:type="arc"
       style="fill:#ffffff;fill-opacity:1;fill-rule:nonzero;stroke:none"
       id="path4913"
       sodipodi:cx="359.28571"
       sodipodi:cy="375.93362"
       sodipodi:rx="179.28572"
       sodipodi:ry="185"
       d="m 538.57143,375.93362 a 179.28572,185 0 1 1 -358.57145,0 179.28572,185 0 1 1 358.57145,0 z"
       transform="matrix(1.109226,0,0,1.0749643,-132.33914,382.66364)" />
    <path
       style="fill:#552200;fill-opacity:1;fill-rule:nonzero;stroke:none"
       d="m 266.18991,562.98429 c -123.59983,0 -223.816541,100.17272 -223.816541,223.77244 0,123.59992 100.216711,223.81667 223.816541,223.81667 123.59984,0 223.81654,-100.21675 223.81654,-223.81667 0,-123.59972 -100.2167,-223.77244 -223.81654,-223.77244 z m 0,24.93209 c 109.83197,0 198.88452,89.00852 198.88452,198.84035 0,109.83203 -89.05255,198.8846 -198.88452,198.8846 -109.83197,0 -198.884521,-89.05257 -198.884521,-198.8846 0,-109.83183 89.052551,-198.84035 198.884521,-198.84035 z"
       id="path4926"
       inkscape:connector-curvature="0" />
    <path
       sodipodi:nodetypes="ccsccsccccccccccscssssssssccscccccsccssccscccccccc"
       style="fill:#552200"
       d="m 204.43323,925.26396 c -26.43457,-4.61452 -54.41287,-25.28097 -67.23148,-49.01204 -10.84845,-20.99897 -16.34523,-43.48299 -16.53031,-67.61529 -0.11693,-15.24183 2.01936,-22.19768 3.69494,-12.03069 5.78132,31.66266 23.43726,68.41647 50.39139,82.66505 21.60861,10.90374 53.8155,7.0452 69.14445,-8.28373 7.22203,-7.22207 10.55218,-15.08212 10.58984,-24.99485 -3.68428,-32.31955 -31.71018,-33.71553 -55.239,-30.07686 -3.35409,-11.86741 -8.82109,-31.16836 -12.2061,-43.43881 16.27339,5.29562 48.41941,2.39286 56.95687,-11.98636 7.71387,-14.91693 -4.2848,-28.80738 -24.64615,-28.53187 -19.28001,-1.62865 -39.52236,11.85004 -51.71343,21.04709 -7.46429,-12.46565 -12.27853,-22.46017 -19.3572,-36.20088 10.70845,-8.60347 23.69937,-15.38303 35.86996,-19.57584 17.96062,-6.02729 44.8385,-6.13827 58.17209,-0.24019 23.95673,12.60297 29.46796,44.66608 20.24648,65.57997 -4.71106,10.05977 -11.82069,19.00385 -19.32663,24.31353 -3.05309,2.15976 -5.56461,4.39535 -5.58113,4.96804 -0.0515,1.78322 18.43199,9.51199 22.74804,9.51199 10.07753,0 18.76881,-8.90032 29.85435,-30.57245 13.33409,-26.0679 28.39098,-39.20499 48.67863,-42.47196 29.16806,-4.69696 57.13698,18.79726 66.85533,56.15923 1.30846,5.03037 2.85642,16.11127 3.43992,24.62421 2.29096,33.42421 -4.86315,57.30028 -22.55237,75.26625 -21.37244,21.70688 -51.2899,24.39584 -71.29655,6.4082 -12.11718,-10.89446 -18.58023,-27.84295 -18.63484,-48.86781 -0.0273,-10.49414 2.21302,-18.77829 4.11538,-15.21791 9.07374,27.90696 29.46722,37.32201 55.79019,27.97311 11.27109,-4.21707 25.76863,-18.62576 29.88113,-29.69821 8.01409,-21.57672 6.21788,-46.74647 -4.4334,-62.12352 -22.32699,-23.37732 -43.54489,7.55147 -50.86844,19.81166 -9.45211,15.98322 -17.54743,24.81178 -26.98478,29.42903 -13.04402,6.65233 -20.62903,1.0155 -34.25937,4.68634 2.61897,6.82028 5.84897,13.57464 7.75828,20.75948 8.65391,33.15841 -0.8102,63.46758 -24.48446,78.41251 -12.35827,7.80138 -33.18873,11.77784 -48.84163,9.32358 z m 97.22751,-202.82192 c -25.96908,-3.87298 -50.65343,-28.68543 -55.53211,-55.82026 -2.3409,-13.01999 -0.92954,-14.09994 5.1216,-4.81906 6.08504,9.33289 16.04327,18.50853 27.36717,24.41912 18.03054,8.12558 38.25269,5.6045 51.99494,-1.1928 6.78629,-3.36385 15.58296,-9.25148 20.57592,-13.77149 l 8.72169,-7.89552 c 10.16314,13.06235 19.58402,25.378 22.65893,29.96656 -20.59537,20.58514 -52.79256,32.77946 -80.90814,29.11345 z m -26.60949,-63.5207 25.50733,-25.0038 27.13348,24.84143 -26.28274,25.78975 z"
       id="path4124"
       inkscape:connector-curvature="0" />
    <path
       style="fill:#000000;filter:url(#filter4905)"
       d="m 398.67211,423.75938 -18.125,17.78125 1,1 18.125,-17.75 18.25,16.65625 0.0312,-0.0312 -19.28125,-17.65625 z m -38.84375,15.5 c -0.86396,0.0348 -0.77955,2.54514 0.15625,7.75 1.70681,9.49318 6.8539,18.57265 13.8125,25.6875 -6.45509,-6.95145 -11.156,-15.61676 -12.78125,-24.65625 -1.10776,-6.16131 -1.03688,-8.56322 0.40625,-7.53125 -0.70178,-0.83668 -1.23317,-1.26453 -1.59375,-1.25 z m 81.03125,5.4375 -6.1875,5.625 c -3.54841,3.21229 -9.8021,7.39062 -14.625,9.78125 -9.76637,4.83072 -24.15476,6.61846 -36.96875,0.84375 -4.52683,-2.36281 -8.74827,-5.46815 -12.34375,-8.90625 3.80708,3.83802 8.41137,7.31545 13.375,9.90625 12.81399,5.77471 27.17113,3.98697 36.9375,-0.84375 4.8229,-2.39063 11.07659,-6.56896 14.625,-9.78125 l 6.0625,-5.5 c -0.29797,-0.3835 -0.57492,-0.73931 -0.875,-1.125 z m -103,20.8125 c -7.55544,0.0312 -15.5241,1.10825 -21.90625,3.25 -8.64942,2.97976 -17.88969,7.79191 -25.5,13.90625 5.03069,9.76528 8.44526,16.89088 13.75,25.75 0.0947,-0.0714 0.21647,-0.14662 0.3125,-0.21875 -4.89456,-8.29541 -8.2367,-15.19311 -13.03125,-24.5 7.61031,-6.11434 16.81933,-10.92649 25.46875,-13.90625 12.7643,-4.28349 31.8678,-4.37916 41.34375,-0.1875 2.54987,1.34141 4.81058,2.98625 6.78125,4.875 -2.19658,-2.31003 -4.78938,-4.30106 -7.78125,-5.875 -4.73798,-2.09583 -11.88206,-3.12495 -19.4375,-3.09375 z m 93.90625,24.9375 c -1.9184,-0.0308 -3.86913,0.0933 -5.8125,0.40625 -14.41808,2.32178 -25.11745,11.6615 -34.59375,30.1875 -7.8783,15.402 -14.05682,21.71875 -21.21875,21.71875 -2.54699,0 -11.99971,-3.77075 -15.125,-5.78125 -0.002,0.0116 -0.031,0.0211 -0.0312,0.0312 -0.0366,1.2673 13.12016,6.78125 16.1875,6.78125 7.16193,0 13.34045,-6.31675 21.21875,-21.71875 9.4763,-18.526 20.17567,-27.86572 34.59375,-30.1875 11.0124,-1.77334 21.78554,2.08451 30.5,10.09375 -7.37969,-7.19658 -16.33329,-11.38033 -25.71875,-11.53125 z m -74.875,8.75 c 3.51682,3.79821 4.42046,9.06501 1.59375,14.53125 -6.06742,10.21906 -28.90354,12.29475 -40.46875,8.53125 2.40567,8.72039 6.27256,22.40979 8.65625,30.84375 0.23544,-0.0364 0.4821,-0.0588 0.71875,-0.0937 -2.3985,-8.48457 -6.0574,-21.34885 -8.375,-29.75 11.56521,3.7635 34.40133,1.68781 40.46875,-8.53125 3.08369,-5.96317 1.75226,-11.69168 -2.59375,-15.53125 z m 99.8125,16.28125 c 7.5137,10.93634 8.77338,28.77096 3.09375,44.0625 -2.92268,7.869 -13.23983,18.128 -21.25,21.125 -12.1632,4.3199 -22.54632,2.9954 -30.09375,-3.90625 7.61963,7.75794 18.37006,9.42522 31.09375,4.90625 8.01017,-2.997 18.32732,-13.22475 21.25,-21.09375 5.69547,-15.3342 4.41343,-33.22805 -3.15625,-44.15625 -0.3165,-0.33139 -0.6217,-0.63641 -0.9375,-0.9375 z m -184.40625,20.5 c -0.82987,-0.16035 -1.52588,4.52168 -1.46875,11.96875 0.13153,17.1504 4.0402,33.1389 11.75,48.0625 2.77246,5.13264 6.56646,10.03096 11,14.5 -4.00252,-4.19345 -7.43782,-8.75665 -10,-13.5 -7.7098,-14.9236 -11.58722,-30.9121 -11.71875,-48.0625 -0.0495,-6.44746 0.47779,-10.76819 1.15625,-11.71875 -0.23297,-0.80276 -0.49242,-1.20627 -0.71875,-1.25 z m 87.78125,23.9375 c 3.01723,3.39253 5.13859,8.10249 5.875,14.5625 -0.0268,7.0448 -2.39868,12.64865 -7.53125,17.78125 -10.89402,10.894 -33.79939,13.6241 -49.15625,5.875 -3.99088,-2.10967 -7.69306,-4.89799 -11.09375,-8.21875 3.67099,3.75978 7.73928,6.93161 12.125,9.25 15.35686,7.7491 38.23098,4.98775 49.125,-5.90625 5.13257,-5.1326 7.50449,-10.7052 7.53125,-17.75 -0.81455,-7.1455 -3.32909,-12.14812 -6.875,-15.59375 z m 38.0625,0.28125 c -1.11876,0.31332 -2.17201,5.34662 -2.15625,11.40625 0.0376,14.48906 4.35503,26.24051 12.46875,34 -7.46102,-7.75355 -11.43271,-19.12506 -11.46875,-33 -0.0153,-5.88155 0.98147,-10.77407 2.0625,-11.34375 -0.0553,-0.16487 -0.10204,-0.33328 -0.15625,-0.5 -0.25349,-0.47443 -0.49182,-0.6348 -0.75,-0.5625 z"
       id="path4126"
       inkscape:connector-curvature="0"
       transform="matrix(1.4070981,0,0,1.4070981,-260.13125,37.947853)" />
    <path
       inkscape:connector-curvature="0"
       style="fill:#000000;fill-opacity:1;fill-rule:nonzero;stroke:none;filter:url(#filter4981)"
       d="m 373.125,389.9375 c -78.05566,0 -141.34375,63.25694 -141.34375,141.3125 0,39.02785 15.82727,74.35851 41.40625,99.9375 -25.04329,-25.50305 -40.46875,-60.4687 -40.46875,-99.03125 0,-78.05556 63.28809,-141.3125 141.34375,-141.3125 37.80821,0 72.13535,14.85569 97.5,39.03125 -25.45224,-24.70482 -60.16399,-39.9375 -98.4375,-39.9375 z m 115.15625,31.59375 c 27.21478,28.53682 43.90625,67.17117 43.90625,109.71875 0,87.8403 -71.22226,159.0625 -159.0625,159.0625 -43.73757,0 -83.33702,-17.67505 -112.09375,-46.25 28.82784,29.10898 68.83179,47.15625 113.03125,47.15625 87.84024,0 159.0625,-71.2222 159.0625,-159.0625 0,-43.01034 -17.10273,-82.00074 -44.84375,-110.625 z"
       id="path4973"
       transform="matrix(1.4070981,0,0,1.4070981,-260.13125,37.947853)" />
  </g>
</svg>
